<mxfile host="Electron" modified="2024-04-21T16:44:55.301Z" agent="Mozilla/5.0 (Windows NT 10.0; Win64; x64) AppleWebKit/537.36 (KHTML, like Gecko) draw.io/24.1.0 Chrome/120.0.6099.109 Electron/28.1.0 Safari/537.36" etag="8Hto0DB27SKfFvyLCzFm" version="24.1.0" type="device">
  <diagram name="Page-1" id="q7bWOxxrzYGh3gGL6_S_">
    <mxGraphModel dx="5848" dy="4592" grid="1" gridSize="10" guides="1" tooltips="1" connect="1" arrows="1" fold="1" page="1" pageScale="1" pageWidth="850" pageHeight="1100" math="0" shadow="0">
      <root>
        <mxCell id="0" />
        <mxCell id="1" parent="0" />
        <mxCell id="vdx9aR_LZm65uiy0afiX-14" value="&lt;b&gt;&lt;font style=&quot;font-size: 15px;&quot;&gt;RMS&lt;/font&gt;&lt;/b&gt;" style="rounded=0;whiteSpace=wrap;html=1;horizontal=1;verticalAlign=top;" parent="1" vertex="1">
          <mxGeometry x="-1030" y="-260" width="660" height="700" as="geometry" />
        </mxCell>
        <mxCell id="vdx9aR_LZm65uiy0afiX-1" value="View alarm history" style="ellipse;whiteSpace=wrap;html=1;fillColor=#f5f5f5;fontColor=#333333;strokeColor=#666666;" parent="1" vertex="1">
          <mxGeometry x="519" y="-970" width="120" height="65" as="geometry" />
        </mxCell>
        <mxCell id="vdx9aR_LZm65uiy0afiX-3" value="Notify Alarm on UI&amp;nbsp;" style="ellipse;whiteSpace=wrap;html=1;fillColor=#f5f5f5;fontColor=#333333;strokeColor=#666666;" parent="1" vertex="1">
          <mxGeometry x="1140" y="-370" width="130" height="50" as="geometry" />
        </mxCell>
        <mxCell id="vdx9aR_LZm65uiy0afiX-4" value="Manage alarm&lt;br&gt;conditions" style="ellipse;whiteSpace=wrap;html=1;fillColor=#f5f5f5;fontColor=#333333;strokeColor=#666666;fontStyle=2" parent="1" vertex="1">
          <mxGeometry x="155" y="-280" width="130" height="70" as="geometry" />
        </mxCell>
        <mxCell id="vdx9aR_LZm65uiy0afiX-6" value="Trigger realtime &lt;br&gt;alarm&amp;nbsp;" style="ellipse;whiteSpace=wrap;html=1;fillColor=#f5f5f5;fontColor=#333333;strokeColor=#666666;" parent="1" vertex="1">
          <mxGeometry x="1460" y="-250" width="130" height="70" as="geometry" />
        </mxCell>
        <mxCell id="vdx9aR_LZm65uiy0afiX-7" value="Delete alarm action" style="ellipse;whiteSpace=wrap;html=1;fillColor=#f5f5f5;fontColor=#333333;strokeColor=#666666;" parent="1" vertex="1">
          <mxGeometry x="849" y="-30" width="130" height="70" as="geometry" />
        </mxCell>
        <mxCell id="vdx9aR_LZm65uiy0afiX-8" value="Modify alarm action" style="ellipse;whiteSpace=wrap;html=1;fillColor=#f5f5f5;fontColor=#333333;strokeColor=#666666;" parent="1" vertex="1">
          <mxGeometry x="849" y="-135" width="130" height="70" as="geometry" />
        </mxCell>
        <mxCell id="vdx9aR_LZm65uiy0afiX-9" value="Create alarm action" style="ellipse;whiteSpace=wrap;html=1;fillColor=#f5f5f5;fontColor=#333333;strokeColor=#666666;" parent="1" vertex="1">
          <mxGeometry x="849" y="-235.5" width="130" height="70" as="geometry" />
        </mxCell>
        <mxCell id="vdx9aR_LZm65uiy0afiX-10" value="Delete alarm &lt;br&gt;condition" style="ellipse;whiteSpace=wrap;html=1;fillColor=#f5f5f5;fontColor=#333333;strokeColor=#666666;" parent="1" vertex="1">
          <mxGeometry x="515" y="-490" width="130" height="70" as="geometry" />
        </mxCell>
        <mxCell id="vdx9aR_LZm65uiy0afiX-11" value="Manage alarm actions" style="ellipse;whiteSpace=wrap;html=1;fillColor=#f5f5f5;fontColor=#333333;strokeColor=#666666;fontStyle=2" parent="1" vertex="1">
          <mxGeometry x="519" y="-110" width="130" height="70" as="geometry" />
        </mxCell>
        <mxCell id="vdx9aR_LZm65uiy0afiX-12" value="Modify alarm &lt;br&gt;condition" style="ellipse;whiteSpace=wrap;html=1;fillColor=#f5f5f5;fontColor=#333333;strokeColor=#666666;" parent="1" vertex="1">
          <mxGeometry x="515" y="-403.5" width="130" height="70" as="geometry" />
        </mxCell>
        <mxCell id="vdx9aR_LZm65uiy0afiX-17" value="Monitor" style="shape=umlActor;verticalLabelPosition=bottom;verticalAlign=top;html=1;outlineConnect=0;strokeWidth=2;" parent="1" vertex="1">
          <mxGeometry x="-130" y="-957.5" width="30" height="60" as="geometry" />
        </mxCell>
        <mxCell id="vdx9aR_LZm65uiy0afiX-18" value="Administrator" style="shape=umlActor;verticalLabelPosition=bottom;verticalAlign=top;html=1;outlineConnect=0;strokeWidth=2;" parent="1" vertex="1">
          <mxGeometry x="-130" y="-280" width="30" height="60" as="geometry" />
        </mxCell>
        <mxCell id="vdx9aR_LZm65uiy0afiX-24" value="" style="endArrow=none;html=1;rounded=0;entryX=0;entryY=0.5;entryDx=0;entryDy=0;" parent="1" source="vdx9aR_LZm65uiy0afiX-17" target="vdx9aR_LZm65uiy0afiX-1" edge="1">
          <mxGeometry width="50" height="50" relative="1" as="geometry">
            <mxPoint x="235" y="-782.5" as="sourcePoint" />
            <mxPoint x="285" y="-832.5" as="targetPoint" />
          </mxGeometry>
        </mxCell>
        <mxCell id="vdx9aR_LZm65uiy0afiX-28" value="" style="endArrow=none;html=1;rounded=0;entryX=0;entryY=0.5;entryDx=0;entryDy=0;" parent="1" source="vdx9aR_LZm65uiy0afiX-18" target="vdx9aR_LZm65uiy0afiX-4" edge="1">
          <mxGeometry width="50" height="50" relative="1" as="geometry">
            <mxPoint x="210" y="-180" as="sourcePoint" />
            <mxPoint x="260" y="-230" as="targetPoint" />
          </mxGeometry>
        </mxCell>
        <mxCell id="vdx9aR_LZm65uiy0afiX-29" value="" style="endArrow=block;endSize=16;endFill=0;html=1;rounded=0;" parent="1" source="vdx9aR_LZm65uiy0afiX-18" edge="1">
          <mxGeometry width="160" relative="1" as="geometry">
            <mxPoint x="160" y="-210" as="sourcePoint" />
            <mxPoint x="-120" y="-830" as="targetPoint" />
          </mxGeometry>
        </mxCell>
        <mxCell id="vdx9aR_LZm65uiy0afiX-31" value="" style="endArrow=blockThin;endSize=16;endFill=0;html=1;rounded=0;exitX=0;exitY=0.5;exitDx=0;exitDy=0;entryX=0.808;entryY=0.143;entryDx=0;entryDy=0;entryPerimeter=0;" parent="1" source="vdx9aR_LZm65uiy0afiX-10" target="vdx9aR_LZm65uiy0afiX-4" edge="1">
          <mxGeometry width="160" relative="1" as="geometry">
            <mxPoint x="350" y="-338" as="sourcePoint" />
            <mxPoint x="490" y="-370" as="targetPoint" />
          </mxGeometry>
        </mxCell>
        <mxCell id="vdx9aR_LZm65uiy0afiX-33" value="" style="endArrow=blockThin;endSize=16;endFill=0;html=1;rounded=0;exitX=0;exitY=0.5;exitDx=0;exitDy=0;entryX=0.974;entryY=0.298;entryDx=0;entryDy=0;entryPerimeter=0;" parent="1" source="vdx9aR_LZm65uiy0afiX-12" target="vdx9aR_LZm65uiy0afiX-4" edge="1">
          <mxGeometry width="160" relative="1" as="geometry">
            <mxPoint x="365" y="-415" as="sourcePoint" />
            <mxPoint x="250" y="-230" as="targetPoint" />
          </mxGeometry>
        </mxCell>
        <mxCell id="vdx9aR_LZm65uiy0afiX-34" value="" style="endArrow=blockThin;endSize=16;endFill=0;html=1;rounded=0;exitX=0;exitY=0.5;exitDx=0;exitDy=0;entryX=0.987;entryY=0.6;entryDx=0;entryDy=0;entryPerimeter=0;" parent="1" target="vdx9aR_LZm65uiy0afiX-4" edge="1">
          <mxGeometry width="160" relative="1" as="geometry">
            <mxPoint x="519.0000000000018" y="-185" as="sourcePoint" />
            <mxPoint x="264" y="-227" as="targetPoint" />
          </mxGeometry>
        </mxCell>
        <mxCell id="vdx9aR_LZm65uiy0afiX-35" value="" style="endArrow=blockThin;endSize=16;endFill=0;html=1;rounded=0;exitX=0;exitY=0.5;exitDx=0;exitDy=0;" parent="1" source="vdx9aR_LZm65uiy0afiX-11" target="vdx9aR_LZm65uiy0afiX-4" edge="1">
          <mxGeometry width="160" relative="1" as="geometry">
            <mxPoint x="375" y="-305" as="sourcePoint" />
            <mxPoint x="274" y="-217" as="targetPoint" />
          </mxGeometry>
        </mxCell>
        <mxCell id="vdx9aR_LZm65uiy0afiX-42" value="Stream all &lt;br&gt;unresolved alarms" style="ellipse;whiteSpace=wrap;html=1;fillColor=#f5f5f5;fontColor=#333333;strokeColor=#666666;" parent="1" vertex="1">
          <mxGeometry x="1465" y="-30" width="130" height="70" as="geometry" />
        </mxCell>
        <mxCell id="O6qfYlx07FazeDkOTpJF-3" value="Notify Alarm via Email" style="ellipse;whiteSpace=wrap;html=1;fillColor=#f5f5f5;fontColor=#333333;strokeColor=#666666;" parent="1" vertex="1">
          <mxGeometry x="1090" y="-270" width="130" height="50" as="geometry" />
        </mxCell>
        <mxCell id="O6qfYlx07FazeDkOTpJF-5" value="&amp;lt;&amp;lt;extend&amp;gt;&amp;gt;" style="html=1;verticalAlign=bottom;labelBackgroundColor=none;endArrow=none;endFill=0;dashed=1;rounded=0;startArrow=open;startFill=0;" parent="1" source="vdx9aR_LZm65uiy0afiX-6" target="vdx9aR_LZm65uiy0afiX-3" edge="1">
          <mxGeometry width="160" relative="1" as="geometry">
            <mxPoint x="1420" y="-220" as="sourcePoint" />
            <mxPoint x="1180" y="110" as="targetPoint" />
          </mxGeometry>
        </mxCell>
        <mxCell id="O6qfYlx07FazeDkOTpJF-6" value="&amp;lt;&amp;lt;extend&amp;gt;&amp;gt;" style="html=1;verticalAlign=bottom;labelBackgroundColor=none;endArrow=none;endFill=0;dashed=1;rounded=0;entryX=1;entryY=0.5;entryDx=0;entryDy=0;exitX=0.026;exitY=0.329;exitDx=0;exitDy=0;startArrow=open;startFill=0;exitPerimeter=0;" parent="1" source="vdx9aR_LZm65uiy0afiX-6" target="O6qfYlx07FazeDkOTpJF-3" edge="1">
          <mxGeometry width="160" relative="1" as="geometry">
            <mxPoint x="1430" y="-190" as="sourcePoint" />
            <mxPoint x="990" y="75" as="targetPoint" />
          </mxGeometry>
        </mxCell>
        <mxCell id="O6qfYlx07FazeDkOTpJF-9" value="&amp;lt;&amp;lt;extend&amp;gt;&amp;gt;" style="html=1;verticalAlign=bottom;labelBackgroundColor=none;endArrow=open;endFill=0;dashed=1;rounded=0;entryX=1;entryY=0.5;entryDx=0;entryDy=0;exitX=0;exitY=0.5;exitDx=0;exitDy=0;" parent="1" source="vdx9aR_LZm65uiy0afiX-9" edge="1">
          <mxGeometry width="160" relative="1" as="geometry">
            <mxPoint x="390" y="-330" as="sourcePoint" />
            <mxPoint x="648.9999999999982" y="-185" as="targetPoint" />
          </mxGeometry>
        </mxCell>
        <mxCell id="O6qfYlx07FazeDkOTpJF-10" value="Resolve alarm" style="ellipse;whiteSpace=wrap;html=1;fillColor=#f5f5f5;fontColor=#333333;strokeColor=#666666;" parent="1" vertex="1">
          <mxGeometry x="1460" y="-155" width="130" height="70" as="geometry" />
        </mxCell>
        <mxCell id="O6qfYlx07FazeDkOTpJF-25" style="rounded=0;orthogonalLoop=1;jettySize=auto;html=1;endArrow=none;endFill=0;" parent="1" source="S8BT3uGQNklFfDtIyJ3y-1" target="vdx9aR_LZm65uiy0afiX-6" edge="1">
          <mxGeometry relative="1" as="geometry">
            <mxPoint x="1720" y="-124.16411841830222" as="sourcePoint" />
          </mxGeometry>
        </mxCell>
        <mxCell id="O6qfYlx07FazeDkOTpJF-22" value="" style="endArrow=blockThin;endSize=16;endFill=0;html=1;rounded=0;exitX=0;exitY=0.5;exitDx=0;exitDy=0;entryX=1;entryY=0;entryDx=0;entryDy=0;" parent="1" source="vdx9aR_LZm65uiy0afiX-9" target="vdx9aR_LZm65uiy0afiX-11" edge="1">
          <mxGeometry width="160" relative="1" as="geometry">
            <mxPoint x="630" y="-190" as="sourcePoint" />
            <mxPoint x="500" y="-65" as="targetPoint" />
          </mxGeometry>
        </mxCell>
        <mxCell id="O6qfYlx07FazeDkOTpJF-23" value="" style="endArrow=blockThin;endSize=16;endFill=0;html=1;rounded=0;exitX=0;exitY=0.5;exitDx=0;exitDy=0;entryX=1;entryY=0.5;entryDx=0;entryDy=0;" parent="1" source="vdx9aR_LZm65uiy0afiX-8" target="vdx9aR_LZm65uiy0afiX-11" edge="1">
          <mxGeometry width="160" relative="1" as="geometry">
            <mxPoint x="590" y="-245" as="sourcePoint" />
            <mxPoint x="510" y="-85" as="targetPoint" />
          </mxGeometry>
        </mxCell>
        <mxCell id="O6qfYlx07FazeDkOTpJF-24" value="" style="endArrow=blockThin;endSize=16;endFill=0;html=1;rounded=0;exitX=0;exitY=0.5;exitDx=0;exitDy=0;entryX=1;entryY=1;entryDx=0;entryDy=0;" parent="1" source="vdx9aR_LZm65uiy0afiX-7" target="vdx9aR_LZm65uiy0afiX-11" edge="1">
          <mxGeometry width="160" relative="1" as="geometry">
            <mxPoint x="590" y="-145" as="sourcePoint" />
            <mxPoint x="510" y="-85" as="targetPoint" />
          </mxGeometry>
        </mxCell>
        <mxCell id="O6qfYlx07FazeDkOTpJF-26" style="rounded=0;orthogonalLoop=1;jettySize=auto;html=1;endArrow=none;endFill=0;entryX=1;entryY=0.5;entryDx=0;entryDy=0;" parent="1" source="S8BT3uGQNklFfDtIyJ3y-1" target="O6qfYlx07FazeDkOTpJF-10" edge="1">
          <mxGeometry relative="1" as="geometry">
            <mxPoint x="1720" y="-112.5" as="sourcePoint" />
            <mxPoint x="1600" y="-202" as="targetPoint" />
          </mxGeometry>
        </mxCell>
        <mxCell id="O6qfYlx07FazeDkOTpJF-27" style="rounded=0;orthogonalLoop=1;jettySize=auto;html=1;endArrow=none;endFill=0;entryX=1;entryY=0.5;entryDx=0;entryDy=0;" parent="1" source="S8BT3uGQNklFfDtIyJ3y-1" target="vdx9aR_LZm65uiy0afiX-42" edge="1">
          <mxGeometry relative="1" as="geometry">
            <mxPoint x="1720" y="-100" as="sourcePoint" />
            <mxPoint x="1600" y="-110" as="targetPoint" />
          </mxGeometry>
        </mxCell>
        <mxCell id="S8BT3uGQNklFfDtIyJ3y-1" value="System Handler" style="shape=umlActor;verticalLabelPosition=bottom;verticalAlign=top;html=1;outlineConnect=0;strokeWidth=2;" vertex="1" parent="1">
          <mxGeometry x="1730" y="-147.5" width="30" height="60" as="geometry" />
        </mxCell>
        <mxCell id="S8BT3uGQNklFfDtIyJ3y-2" value="Notify Alarm via Push notification" style="ellipse;whiteSpace=wrap;html=1;fillColor=#f5f5f5;fontColor=#333333;strokeColor=#666666;" vertex="1" parent="1">
          <mxGeometry x="1080" y="-160" width="130" height="50" as="geometry" />
        </mxCell>
        <mxCell id="S8BT3uGQNklFfDtIyJ3y-3" value="&amp;lt;&amp;lt;extend&amp;gt;&amp;gt;" style="html=1;verticalAlign=bottom;labelBackgroundColor=none;endArrow=none;endFill=0;dashed=1;rounded=0;entryX=0.984;entryY=0.419;entryDx=0;entryDy=0;exitX=0.063;exitY=0.792;exitDx=0;exitDy=0;startArrow=open;startFill=0;entryPerimeter=0;exitPerimeter=0;" edge="1" parent="1" source="vdx9aR_LZm65uiy0afiX-6" target="S8BT3uGQNklFfDtIyJ3y-2">
          <mxGeometry width="160" relative="1" as="geometry">
            <mxPoint x="1470" y="-205" as="sourcePoint" />
            <mxPoint x="1390" y="-235" as="targetPoint" />
          </mxGeometry>
        </mxCell>
        <mxCell id="S8BT3uGQNklFfDtIyJ3y-4" value="Capture report data of the previous day" style="ellipse;whiteSpace=wrap;html=1;fillColor=#f5f5f5;fontColor=#333333;strokeColor=#666666;" vertex="1" parent="1">
          <mxGeometry x="1470" y="-640" width="130" height="70" as="geometry" />
        </mxCell>
        <mxCell id="S8BT3uGQNklFfDtIyJ3y-6" style="rounded=0;orthogonalLoop=1;jettySize=auto;html=1;endArrow=none;endFill=0;" edge="1" parent="1" source="S8BT3uGQNklFfDtIyJ3y-1" target="S8BT3uGQNklFfDtIyJ3y-4">
          <mxGeometry relative="1" as="geometry">
            <mxPoint x="1740" y="-114" as="sourcePoint" />
            <mxPoint x="1585" y="-183" as="targetPoint" />
          </mxGeometry>
        </mxCell>
        <mxCell id="S8BT3uGQNklFfDtIyJ3y-7" value="View statistical charts of a specific day" style="ellipse;whiteSpace=wrap;html=1;fillColor=#f5f5f5;fontColor=#333333;strokeColor=#666666;" vertex="1" parent="1">
          <mxGeometry x="500.25" y="-850" width="167.5" height="67.5" as="geometry" />
        </mxCell>
        <mxCell id="S8BT3uGQNklFfDtIyJ3y-8" value="View statistical charts of a specific date range" style="ellipse;whiteSpace=wrap;html=1;fillColor=#f5f5f5;fontColor=#333333;strokeColor=#666666;" vertex="1" parent="1">
          <mxGeometry x="494" y="-730" width="180" height="60" as="geometry" />
        </mxCell>
        <mxCell id="S8BT3uGQNklFfDtIyJ3y-9" value="Search historical reports" style="ellipse;whiteSpace=wrap;html=1;fillColor=#f5f5f5;fontColor=#333333;strokeColor=#666666;" vertex="1" parent="1">
          <mxGeometry x="205" y="-720" width="120" height="65" as="geometry" />
        </mxCell>
        <mxCell id="S8BT3uGQNklFfDtIyJ3y-10" value="View historical reports" style="ellipse;whiteSpace=wrap;html=1;fillColor=#f5f5f5;fontColor=#333333;strokeColor=#666666;" vertex="1" parent="1">
          <mxGeometry x="145" y="-635" width="150" height="65" as="geometry" />
        </mxCell>
        <mxCell id="S8BT3uGQNklFfDtIyJ3y-11" value="Export a historical report" style="ellipse;whiteSpace=wrap;html=1;fillColor=#f5f5f5;fontColor=#333333;strokeColor=#666666;" vertex="1" parent="1">
          <mxGeometry x="145" y="-510" width="150" height="65" as="geometry" />
        </mxCell>
        <mxCell id="S8BT3uGQNklFfDtIyJ3y-12" value="Batch export historical reports&amp;nbsp;" style="ellipse;whiteSpace=wrap;html=1;fillColor=#f5f5f5;fontColor=#333333;strokeColor=#666666;" vertex="1" parent="1">
          <mxGeometry x="509" y="-610" width="150" height="65" as="geometry" />
        </mxCell>
        <mxCell id="S8BT3uGQNklFfDtIyJ3y-13" value="Monitor real-time production parameters" style="ellipse;whiteSpace=wrap;html=1;fillColor=#f5f5f5;fontColor=#333333;strokeColor=#666666;" vertex="1" parent="1">
          <mxGeometry x="175" y="-1460.5" width="170" height="60" as="geometry" />
        </mxCell>
        <mxCell id="S8BT3uGQNklFfDtIyJ3y-14" value="Modify monitoring PLC Tag" style="ellipse;whiteSpace=wrap;html=1;fillColor=#f5f5f5;fontColor=#333333;strokeColor=#666666;" vertex="1" parent="1">
          <mxGeometry x="200" y="-1040" width="170" height="60" as="geometry" />
        </mxCell>
        <mxCell id="S8BT3uGQNklFfDtIyJ3y-15" value="Login" style="ellipse;whiteSpace=wrap;html=1;fillColor=#f5f5f5;fontColor=#333333;strokeColor=#666666;" vertex="1" parent="1">
          <mxGeometry x="1320" y="-910" width="170" height="60" as="geometry" />
        </mxCell>
        <mxCell id="S8BT3uGQNklFfDtIyJ3y-17" value="Update profile" style="ellipse;whiteSpace=wrap;html=1;fillColor=#f5f5f5;fontColor=#333333;strokeColor=#666666;" vertex="1" parent="1">
          <mxGeometry x="690" y="-1090" width="170" height="60" as="geometry" />
        </mxCell>
        <mxCell id="S8BT3uGQNklFfDtIyJ3y-18" value="Manage user" style="ellipse;whiteSpace=wrap;html=1;fillColor=#f5f5f5;fontColor=#333333;strokeColor=#666666;fontStyle=2" vertex="1" parent="1">
          <mxGeometry x="135" y="120" width="170" height="60" as="geometry" />
        </mxCell>
        <mxCell id="S8BT3uGQNklFfDtIyJ3y-19" value="View user list" style="ellipse;whiteSpace=wrap;html=1;fillColor=#f5f5f5;fontColor=#333333;strokeColor=#666666;" vertex="1" parent="1">
          <mxGeometry x="499" width="170" height="60" as="geometry" />
        </mxCell>
        <mxCell id="S8BT3uGQNklFfDtIyJ3y-21" value="Create user" style="ellipse;whiteSpace=wrap;html=1;fillColor=#f5f5f5;fontColor=#333333;strokeColor=#666666;" vertex="1" parent="1">
          <mxGeometry x="494" y="260" width="170" height="60" as="geometry" />
        </mxCell>
        <mxCell id="S8BT3uGQNklFfDtIyJ3y-22" value="Update user" style="ellipse;whiteSpace=wrap;html=1;fillColor=#f5f5f5;fontColor=#333333;strokeColor=#666666;" vertex="1" parent="1">
          <mxGeometry x="969" y="110" width="170" height="60" as="geometry" />
        </mxCell>
        <mxCell id="S8BT3uGQNklFfDtIyJ3y-23" value="Delete user" style="ellipse;whiteSpace=wrap;html=1;fillColor=#f5f5f5;fontColor=#333333;strokeColor=#666666;" vertex="1" parent="1">
          <mxGeometry x="494" y="380" width="170" height="60" as="geometry" />
        </mxCell>
        <mxCell id="S8BT3uGQNklFfDtIyJ3y-24" value="Extension point 1" style="shape=note2;boundedLbl=1;whiteSpace=wrap;html=1;size=25;verticalAlign=top;align=left;spacingLeft=5;" vertex="1" parent="1">
          <mxGeometry x="1455" y="-400" width="140" height="60" as="geometry" />
        </mxCell>
        <mxCell id="S8BT3uGQNklFfDtIyJ3y-25" value="Extend condition 1" style="resizeWidth=1;part=1;strokeColor=none;fillColor=none;align=left;spacingLeft=5;whiteSpace=wrap;html=1;" vertex="1" parent="S8BT3uGQNklFfDtIyJ3y-24">
          <mxGeometry width="140" height="25" relative="1" as="geometry" />
        </mxCell>
        <mxCell id="S8BT3uGQNklFfDtIyJ3y-28" value="" style="group" vertex="1" connectable="0" parent="1">
          <mxGeometry x="1386" y="-275" width="10" height="10" as="geometry" />
        </mxCell>
        <mxCell id="S8BT3uGQNklFfDtIyJ3y-26" value="" style="strokeWidth=1;html=1;shape=mxgraph.flowchart.start_2;whiteSpace=wrap;" vertex="1" parent="S8BT3uGQNklFfDtIyJ3y-28">
          <mxGeometry width="10" height="10" as="geometry" />
        </mxCell>
        <mxCell id="S8BT3uGQNklFfDtIyJ3y-27" value="" style="line;strokeWidth=1;rotatable=0;dashed=0;labelPosition=right;align=left;verticalAlign=middle;spacingTop=0;spacingLeft=6;points=[];portConstraint=eastwest;" vertex="1" parent="S8BT3uGQNklFfDtIyJ3y-28">
          <mxGeometry y="4.375" width="10" height="1" as="geometry" />
        </mxCell>
        <mxCell id="S8BT3uGQNklFfDtIyJ3y-29" value="" style="endArrow=none;html=1;rounded=0;entryX=0.855;entryY=0.145;entryDx=0;entryDy=0;entryPerimeter=0;dashed=1;exitX=0.5;exitY=1;exitDx=0;exitDy=0;exitPerimeter=0;" edge="1" parent="1" source="S8BT3uGQNklFfDtIyJ3y-24" target="S8BT3uGQNklFfDtIyJ3y-26">
          <mxGeometry relative="1" as="geometry">
            <mxPoint x="1435" y="-412.5" as="sourcePoint" />
            <mxPoint x="1555" y="-502.5" as="targetPoint" />
          </mxGeometry>
        </mxCell>
        <mxCell id="S8BT3uGQNklFfDtIyJ3y-34" value="" style="group" vertex="1" connectable="0" parent="1">
          <mxGeometry x="1060" y="-1380.5" width="10" height="10" as="geometry" />
        </mxCell>
        <mxCell id="S8BT3uGQNklFfDtIyJ3y-35" value="" style="strokeWidth=1;html=1;shape=mxgraph.flowchart.start_2;whiteSpace=wrap;" vertex="1" parent="S8BT3uGQNklFfDtIyJ3y-34">
          <mxGeometry width="10" height="10" as="geometry" />
        </mxCell>
        <mxCell id="S8BT3uGQNklFfDtIyJ3y-36" value="" style="line;strokeWidth=1;rotatable=0;dashed=0;labelPosition=right;align=left;verticalAlign=middle;spacingTop=0;spacingLeft=6;points=[];portConstraint=eastwest;" vertex="1" parent="S8BT3uGQNklFfDtIyJ3y-34">
          <mxGeometry y="4.375" width="10" height="1" as="geometry" />
        </mxCell>
        <mxCell id="S8BT3uGQNklFfDtIyJ3y-37" value="" style="endArrow=none;html=1;rounded=0;entryX=0.5;entryY=0;entryDx=0;entryDy=0;entryPerimeter=0;dashed=1;exitX=0.5;exitY=1;exitDx=0;exitDy=0;exitPerimeter=0;" edge="1" target="S8BT3uGQNklFfDtIyJ3y-35" parent="1">
          <mxGeometry relative="1" as="geometry">
            <mxPoint x="1200" y="-1460" as="sourcePoint" />
            <mxPoint x="1305" y="-1540.5" as="targetPoint" />
          </mxGeometry>
        </mxCell>
        <mxCell id="S8BT3uGQNklFfDtIyJ3y-38" value="" style="group" vertex="1" connectable="0" parent="1">
          <mxGeometry x="1270" y="-245.5" width="10" height="10" as="geometry" />
        </mxCell>
        <mxCell id="S8BT3uGQNklFfDtIyJ3y-39" value="" style="strokeWidth=1;html=1;shape=mxgraph.flowchart.start_2;whiteSpace=wrap;" vertex="1" parent="S8BT3uGQNklFfDtIyJ3y-38">
          <mxGeometry width="10" height="10" as="geometry" />
        </mxCell>
        <mxCell id="S8BT3uGQNklFfDtIyJ3y-40" value="" style="line;strokeWidth=1;rotatable=0;dashed=0;labelPosition=right;align=left;verticalAlign=middle;spacingTop=0;spacingLeft=6;points=[];portConstraint=eastwest;" vertex="1" parent="S8BT3uGQNklFfDtIyJ3y-38">
          <mxGeometry y="4.375" width="10" height="1" as="geometry" />
        </mxCell>
        <mxCell id="S8BT3uGQNklFfDtIyJ3y-41" value="" style="endArrow=none;html=1;rounded=0;entryX=0.5;entryY=0;entryDx=0;entryDy=0;entryPerimeter=0;dashed=1;exitX=0.45;exitY=1.008;exitDx=0;exitDy=0;exitPerimeter=0;" edge="1" target="S8BT3uGQNklFfDtIyJ3y-39" parent="1" source="S8BT3uGQNklFfDtIyJ3y-42">
          <mxGeometry relative="1" as="geometry">
            <mxPoint x="1380" y="-370" as="sourcePoint" />
            <mxPoint x="1515" y="-405.5" as="targetPoint" />
          </mxGeometry>
        </mxCell>
        <mxCell id="S8BT3uGQNklFfDtIyJ3y-42" value="Extension point 1" style="shape=note2;boundedLbl=1;whiteSpace=wrap;html=1;size=25;verticalAlign=top;align=left;spacingLeft=5;" vertex="1" parent="1">
          <mxGeometry x="1290" y="-516.5" width="140" height="60" as="geometry" />
        </mxCell>
        <mxCell id="S8BT3uGQNklFfDtIyJ3y-43" value="Extend condition 1" style="resizeWidth=1;part=1;strokeColor=none;fillColor=none;align=left;spacingLeft=5;whiteSpace=wrap;html=1;" vertex="1" parent="S8BT3uGQNklFfDtIyJ3y-42">
          <mxGeometry width="140" height="25" relative="1" as="geometry" />
        </mxCell>
        <mxCell id="S8BT3uGQNklFfDtIyJ3y-44" value="" style="group" vertex="1" connectable="0" parent="1">
          <mxGeometry x="1296" y="-164" width="10" height="10" as="geometry" />
        </mxCell>
        <mxCell id="S8BT3uGQNklFfDtIyJ3y-45" value="" style="strokeWidth=1;html=1;shape=mxgraph.flowchart.start_2;whiteSpace=wrap;" vertex="1" parent="S8BT3uGQNklFfDtIyJ3y-44">
          <mxGeometry width="10" height="10" as="geometry" />
        </mxCell>
        <mxCell id="S8BT3uGQNklFfDtIyJ3y-46" value="" style="line;strokeWidth=1;rotatable=0;dashed=0;labelPosition=right;align=left;verticalAlign=middle;spacingTop=0;spacingLeft=6;points=[];portConstraint=eastwest;" vertex="1" parent="S8BT3uGQNklFfDtIyJ3y-44">
          <mxGeometry y="4.375" width="10" height="1" as="geometry" />
        </mxCell>
        <mxCell id="S8BT3uGQNklFfDtIyJ3y-47" value="" style="endArrow=none;html=1;rounded=0;entryX=0.643;entryY=1.21;entryDx=0;entryDy=0;entryPerimeter=0;dashed=1;" edge="1" target="S8BT3uGQNklFfDtIyJ3y-45" parent="1" source="S8BT3uGQNklFfDtIyJ3y-48">
          <mxGeometry relative="1" as="geometry">
            <mxPoint x="1330" y="-70" as="sourcePoint" />
            <mxPoint x="1485" y="-20.5" as="targetPoint" />
          </mxGeometry>
        </mxCell>
        <mxCell id="S8BT3uGQNklFfDtIyJ3y-48" value="Extension point 1" style="shape=note2;boundedLbl=1;whiteSpace=wrap;html=1;size=25;verticalAlign=top;align=left;spacingLeft=5;" vertex="1" parent="1">
          <mxGeometry x="1231" y="-65" width="140" height="60" as="geometry" />
        </mxCell>
        <mxCell id="S8BT3uGQNklFfDtIyJ3y-49" value="Extend condition 1" style="resizeWidth=1;part=1;strokeColor=none;fillColor=none;align=left;spacingLeft=5;whiteSpace=wrap;html=1;" vertex="1" parent="S8BT3uGQNklFfDtIyJ3y-48">
          <mxGeometry width="140" height="25" relative="1" as="geometry" />
        </mxCell>
        <mxCell id="S8BT3uGQNklFfDtIyJ3y-53" value="" style="endArrow=blockThin;endSize=16;endFill=0;html=1;rounded=0;exitX=0.026;exitY=0.64;exitDx=0;exitDy=0;entryX=0.653;entryY=0.007;entryDx=0;entryDy=0;entryPerimeter=0;exitPerimeter=0;" edge="1" parent="1" source="S8BT3uGQNklFfDtIyJ3y-19" target="S8BT3uGQNklFfDtIyJ3y-18">
          <mxGeometry width="160" relative="1" as="geometry">
            <mxPoint x="490" y="154" as="sourcePoint" />
            <mxPoint x="380" y="249" as="targetPoint" />
          </mxGeometry>
        </mxCell>
        <mxCell id="S8BT3uGQNklFfDtIyJ3y-54" value="" style="endArrow=blockThin;endSize=16;endFill=0;html=1;rounded=0;exitX=0.019;exitY=0.68;exitDx=0;exitDy=0;entryX=0.832;entryY=0.127;entryDx=0;entryDy=0;entryPerimeter=0;exitPerimeter=0;" edge="1" parent="1" target="S8BT3uGQNklFfDtIyJ3y-18">
          <mxGeometry width="160" relative="1" as="geometry">
            <mxPoint x="502.22999999999956" y="140.79999999999973" as="sourcePoint" />
            <mxPoint x="321" y="134" as="targetPoint" />
          </mxGeometry>
        </mxCell>
        <mxCell id="S8BT3uGQNklFfDtIyJ3y-55" value="" style="endArrow=blockThin;endSize=16;endFill=0;html=1;rounded=0;exitX=0;exitY=0.5;exitDx=0;exitDy=0;entryX=1;entryY=0.62;entryDx=0;entryDy=0;entryPerimeter=0;" edge="1" parent="1" source="S8BT3uGQNklFfDtIyJ3y-21" target="S8BT3uGQNklFfDtIyJ3y-18">
          <mxGeometry width="160" relative="1" as="geometry">
            <mxPoint x="578" y="105" as="sourcePoint" />
            <mxPoint x="351" y="142" as="targetPoint" />
          </mxGeometry>
        </mxCell>
        <mxCell id="S8BT3uGQNklFfDtIyJ3y-56" value="" style="endArrow=open;endSize=16;endFill=0;html=1;rounded=0;exitX=0.031;exitY=0.307;exitDx=0;exitDy=0;entryX=1;entryY=0.5;entryDx=0;entryDy=0;exitPerimeter=0;dashed=1;" edge="1" parent="1" source="S8BT3uGQNklFfDtIyJ3y-22">
          <mxGeometry width="160" relative="1" as="geometry">
            <mxPoint x="585" y="171" as="sourcePoint" />
            <mxPoint x="668.99999999997" y="130" as="targetPoint" />
          </mxGeometry>
        </mxCell>
        <mxCell id="S8BT3uGQNklFfDtIyJ3y-67" value="&amp;lt;&amp;lt;extend&amp;gt;&amp;gt;" style="edgeLabel;html=1;align=center;verticalAlign=middle;resizable=0;points=[];" vertex="1" connectable="0" parent="S8BT3uGQNklFfDtIyJ3y-56">
          <mxGeometry x="-0.0541" y="1" relative="1" as="geometry">
            <mxPoint as="offset" />
          </mxGeometry>
        </mxCell>
        <mxCell id="S8BT3uGQNklFfDtIyJ3y-57" value="" style="endArrow=blockThin;endSize=16;endFill=0;html=1;rounded=0;entryX=0.641;entryY=1.04;entryDx=0;entryDy=0;entryPerimeter=0;" edge="1" parent="1" source="S8BT3uGQNklFfDtIyJ3y-23" target="S8BT3uGQNklFfDtIyJ3y-18">
          <mxGeometry width="160" relative="1" as="geometry">
            <mxPoint x="560" y="222" as="sourcePoint" />
            <mxPoint x="362" y="186" as="targetPoint" />
          </mxGeometry>
        </mxCell>
        <mxCell id="S8BT3uGQNklFfDtIyJ3y-58" value="&amp;lt;&amp;lt;include&amp;gt;&amp;gt;" style="html=1;verticalAlign=bottom;labelBackgroundColor=none;endArrow=none;endFill=0;dashed=1;rounded=0;startArrow=open;startFill=0;" edge="1" parent="1" source="S8BT3uGQNklFfDtIyJ3y-9" target="S8BT3uGQNklFfDtIyJ3y-12">
          <mxGeometry width="160" relative="1" as="geometry">
            <mxPoint x="906.5" y="-602.5" as="sourcePoint" />
            <mxPoint x="683.5" y="-693.5" as="targetPoint" />
          </mxGeometry>
        </mxCell>
        <mxCell id="S8BT3uGQNklFfDtIyJ3y-59" value="&amp;lt;&amp;lt;include&amp;gt;&amp;gt;" style="html=1;verticalAlign=bottom;labelBackgroundColor=none;endArrow=none;endFill=0;dashed=1;rounded=0;startArrow=open;startFill=0;" edge="1" parent="1" source="S8BT3uGQNklFfDtIyJ3y-10" target="S8BT3uGQNklFfDtIyJ3y-11">
          <mxGeometry x="0.3333" width="160" relative="1" as="geometry">
            <mxPoint x="626" y="-784" as="sourcePoint" />
            <mxPoint x="646" y="-609" as="targetPoint" />
            <mxPoint as="offset" />
          </mxGeometry>
        </mxCell>
        <mxCell id="S8BT3uGQNklFfDtIyJ3y-63" value="" style="endArrow=none;html=1;rounded=0;entryX=0.5;entryY=0;entryDx=0;entryDy=0;entryPerimeter=0;dashed=1;exitX=0.419;exitY=0.997;exitDx=0;exitDy=0;exitPerimeter=0;" edge="1" target="S8BT3uGQNklFfDtIyJ3y-61" parent="1" source="S8BT3uGQNklFfDtIyJ3y-64">
          <mxGeometry relative="1" as="geometry">
            <mxPoint x="590" y="-300" as="sourcePoint" />
            <mxPoint x="1225" y="-450.5" as="targetPoint" />
          </mxGeometry>
        </mxCell>
        <mxCell id="S8BT3uGQNklFfDtIyJ3y-64" value="Extension point 1" style="shape=note2;boundedLbl=1;whiteSpace=wrap;html=1;size=25;verticalAlign=top;align=left;spacingLeft=5;" vertex="1" parent="1">
          <mxGeometry x="750" y="-545" width="140" height="60" as="geometry" />
        </mxCell>
        <mxCell id="S8BT3uGQNklFfDtIyJ3y-65" value="Extend condition 1" style="resizeWidth=1;part=1;strokeColor=none;fillColor=none;align=left;spacingLeft=5;whiteSpace=wrap;html=1;" vertex="1" parent="S8BT3uGQNklFfDtIyJ3y-64">
          <mxGeometry width="140" height="25" relative="1" as="geometry" />
        </mxCell>
        <mxCell id="S8BT3uGQNklFfDtIyJ3y-76" value="" style="group" vertex="1" connectable="0" parent="1">
          <mxGeometry x="940" y="240" width="10" height="10" as="geometry" />
        </mxCell>
        <mxCell id="S8BT3uGQNklFfDtIyJ3y-77" value="" style="strokeWidth=1;html=1;shape=mxgraph.flowchart.start_2;whiteSpace=wrap;" vertex="1" parent="S8BT3uGQNklFfDtIyJ3y-76">
          <mxGeometry width="10" height="10" as="geometry" />
        </mxCell>
        <mxCell id="S8BT3uGQNklFfDtIyJ3y-78" value="" style="line;strokeWidth=1;rotatable=0;dashed=0;labelPosition=right;align=left;verticalAlign=middle;spacingTop=0;spacingLeft=6;points=[];portConstraint=eastwest;" vertex="1" parent="S8BT3uGQNklFfDtIyJ3y-76">
          <mxGeometry y="4.375" width="10" height="1" as="geometry" />
        </mxCell>
        <mxCell id="S8BT3uGQNklFfDtIyJ3y-79" value="" style="endArrow=none;html=1;rounded=0;dashed=1;" edge="1" parent="1" source="S8BT3uGQNklFfDtIyJ3y-82">
          <mxGeometry relative="1" as="geometry">
            <mxPoint x="880" y="-30" as="sourcePoint" />
            <mxPoint x="1600" y="280" as="targetPoint" />
          </mxGeometry>
        </mxCell>
        <mxCell id="S8BT3uGQNklFfDtIyJ3y-82" value="Extension point 1" style="shape=note2;boundedLbl=1;whiteSpace=wrap;html=1;size=25;verticalAlign=top;align=left;spacingLeft=5;" vertex="1" parent="1">
          <mxGeometry x="1140" y="390" width="140" height="60" as="geometry" />
        </mxCell>
        <mxCell id="S8BT3uGQNklFfDtIyJ3y-83" value="Extend condition 1" style="resizeWidth=1;part=1;strokeColor=none;fillColor=none;align=left;spacingLeft=5;whiteSpace=wrap;html=1;" vertex="1" parent="S8BT3uGQNklFfDtIyJ3y-82">
          <mxGeometry width="140" height="25" relative="1" as="geometry" />
        </mxCell>
        <mxCell id="S8BT3uGQNklFfDtIyJ3y-85" value="Stream real-time production parameters" style="ellipse;whiteSpace=wrap;html=1;fillColor=#f5f5f5;fontColor=#333333;strokeColor=#666666;" vertex="1" parent="1">
          <mxGeometry x="1450" y="140" width="170" height="60" as="geometry" />
        </mxCell>
        <mxCell id="S8BT3uGQNklFfDtIyJ3y-86" value="&amp;lt;&amp;lt;extend&amp;gt;&amp;gt;" style="html=1;verticalAlign=bottom;labelBackgroundColor=none;endArrow=open;endFill=0;dashed=1;rounded=0;" edge="1" parent="1" source="S8BT3uGQNklFfDtIyJ3y-17">
          <mxGeometry width="160" relative="1" as="geometry">
            <mxPoint x="800" y="-1220" as="sourcePoint" />
            <mxPoint x="311.731673942983" y="-1163.905081469857" as="targetPoint" />
          </mxGeometry>
        </mxCell>
        <mxCell id="S8BT3uGQNklFfDtIyJ3y-87" value="" style="group" vertex="1" connectable="0" parent="1">
          <mxGeometry x="640" y="-1100" width="10" height="10" as="geometry" />
        </mxCell>
        <mxCell id="S8BT3uGQNklFfDtIyJ3y-88" value="" style="strokeWidth=1;html=1;shape=mxgraph.flowchart.start_2;whiteSpace=wrap;" vertex="1" parent="S8BT3uGQNklFfDtIyJ3y-87">
          <mxGeometry width="10" height="10" as="geometry" />
        </mxCell>
        <mxCell id="S8BT3uGQNklFfDtIyJ3y-89" value="" style="line;strokeWidth=1;rotatable=0;dashed=0;labelPosition=right;align=left;verticalAlign=middle;spacingTop=0;spacingLeft=6;points=[];portConstraint=eastwest;" vertex="1" parent="S8BT3uGQNklFfDtIyJ3y-87">
          <mxGeometry y="4.375" width="10" height="1" as="geometry" />
        </mxCell>
        <mxCell id="S8BT3uGQNklFfDtIyJ3y-90" value="" style="endArrow=none;html=1;rounded=0;entryX=0.614;entryY=1.114;entryDx=0;entryDy=0;entryPerimeter=0;dashed=1;" edge="1" target="S8BT3uGQNklFfDtIyJ3y-88" parent="1" source="S8BT3uGQNklFfDtIyJ3y-93">
          <mxGeometry relative="1" as="geometry">
            <mxPoint x="770" y="-1190" as="sourcePoint" />
            <mxPoint x="905" y="-1500.75" as="targetPoint" />
          </mxGeometry>
        </mxCell>
        <mxCell id="S8BT3uGQNklFfDtIyJ3y-93" value="Extension point 1" style="shape=note2;boundedLbl=1;whiteSpace=wrap;html=1;size=25;verticalAlign=top;align=left;spacingLeft=5;" vertex="1" parent="1">
          <mxGeometry x="680" y="-1250.5" width="140" height="60" as="geometry" />
        </mxCell>
        <mxCell id="S8BT3uGQNklFfDtIyJ3y-94" value="Extend condition 1" style="resizeWidth=1;part=1;strokeColor=none;fillColor=none;align=left;spacingLeft=5;whiteSpace=wrap;html=1;" vertex="1" parent="S8BT3uGQNklFfDtIyJ3y-93">
          <mxGeometry width="140" height="25" relative="1" as="geometry" />
        </mxCell>
        <mxCell id="S8BT3uGQNklFfDtIyJ3y-95" value="Log out" style="ellipse;whiteSpace=wrap;html=1;fillColor=#f5f5f5;fontColor=#333333;strokeColor=#666666;" vertex="1" parent="1">
          <mxGeometry x="175" y="-1550" width="170" height="60" as="geometry" />
        </mxCell>
        <mxCell id="S8BT3uGQNklFfDtIyJ3y-97" style="rounded=0;orthogonalLoop=1;jettySize=auto;html=1;endArrow=none;endFill=0;entryX=0.753;entryY=0.052;entryDx=0;entryDy=0;entryPerimeter=0;" edge="1" parent="1" source="S8BT3uGQNklFfDtIyJ3y-1" target="S8BT3uGQNklFfDtIyJ3y-85">
          <mxGeometry relative="1" as="geometry">
            <mxPoint x="1740" y="-95" as="sourcePoint" />
            <mxPoint x="1605" y="15" as="targetPoint" />
          </mxGeometry>
        </mxCell>
        <mxCell id="S8BT3uGQNklFfDtIyJ3y-98" value="" style="endArrow=none;html=1;rounded=0;entryX=0;entryY=0.5;entryDx=0;entryDy=0;" edge="1" parent="1" source="vdx9aR_LZm65uiy0afiX-17" target="S8BT3uGQNklFfDtIyJ3y-9">
          <mxGeometry width="50" height="50" relative="1" as="geometry">
            <mxPoint x="55" y="-917" as="sourcePoint" />
            <mxPoint x="175" y="-917" as="targetPoint" />
          </mxGeometry>
        </mxCell>
        <mxCell id="S8BT3uGQNklFfDtIyJ3y-100" value="" style="endArrow=none;html=1;rounded=0;entryX=0.007;entryY=0.308;entryDx=0;entryDy=0;entryPerimeter=0;" edge="1" parent="1" source="vdx9aR_LZm65uiy0afiX-17" target="S8BT3uGQNklFfDtIyJ3y-10">
          <mxGeometry width="50" height="50" relative="1" as="geometry">
            <mxPoint x="55" y="-910" as="sourcePoint" />
            <mxPoint x="350" y="-766" as="targetPoint" />
          </mxGeometry>
        </mxCell>
        <mxCell id="S8BT3uGQNklFfDtIyJ3y-101" value="" style="endArrow=none;html=1;rounded=0;entryX=1;entryY=0.3333333333333333;entryDx=0;entryDy=0;entryPerimeter=0;exitX=0.067;exitY=0.762;exitDx=0;exitDy=0;exitPerimeter=0;" edge="1" parent="1" source="S8BT3uGQNklFfDtIyJ3y-11" target="vdx9aR_LZm65uiy0afiX-18">
          <mxGeometry width="50" height="50" relative="1" as="geometry">
            <mxPoint x="55" y="-903" as="sourcePoint" />
            <mxPoint x="340" y="-637" as="targetPoint" />
          </mxGeometry>
        </mxCell>
        <mxCell id="S8BT3uGQNklFfDtIyJ3y-102" value="" style="endArrow=none;html=1;rounded=0;entryX=1;entryY=0.3333333333333333;entryDx=0;entryDy=0;entryPerimeter=0;exitX=0;exitY=0.662;exitDx=0;exitDy=0;exitPerimeter=0;" edge="1" parent="1" source="S8BT3uGQNklFfDtIyJ3y-12" target="vdx9aR_LZm65uiy0afiX-18">
          <mxGeometry width="50" height="50" relative="1" as="geometry">
            <mxPoint x="345" y="-522" as="sourcePoint" />
            <mxPoint x="50" y="-245" as="targetPoint" />
          </mxGeometry>
        </mxCell>
        <mxCell id="S8BT3uGQNklFfDtIyJ3y-105" value="" style="endArrow=none;html=1;rounded=0;entryX=0.04;entryY=0.704;entryDx=0;entryDy=0;exitX=1;exitY=0.3333333333333333;exitDx=0;exitDy=0;exitPerimeter=0;entryPerimeter=0;" edge="1" parent="1" source="vdx9aR_LZm65uiy0afiX-17" target="S8BT3uGQNklFfDtIyJ3y-95">
          <mxGeometry width="50" height="50" relative="1" as="geometry">
            <mxPoint x="50" y="-940" as="sourcePoint" />
            <mxPoint x="258" y="-1335" as="targetPoint" />
          </mxGeometry>
        </mxCell>
        <mxCell id="S8BT3uGQNklFfDtIyJ3y-106" value="Unauthenticated&lt;div&gt;User&lt;/div&gt;" style="shape=umlActor;verticalLabelPosition=bottom;verticalAlign=top;html=1;outlineConnect=0;strokeWidth=2;" vertex="1" parent="1">
          <mxGeometry x="1730" y="-897.5" width="30" height="60" as="geometry" />
        </mxCell>
        <mxCell id="S8BT3uGQNklFfDtIyJ3y-109" value="" style="endArrow=none;html=1;rounded=0;entryX=1;entryY=0.5;entryDx=0;entryDy=0;exitX=1;exitY=0.3333333333333333;exitDx=0;exitDy=0;exitPerimeter=0;" edge="1" parent="1" source="S8BT3uGQNklFfDtIyJ3y-106" target="S8BT3uGQNklFfDtIyJ3y-15">
          <mxGeometry width="50" height="50" relative="1" as="geometry">
            <mxPoint x="55" y="-927" as="sourcePoint" />
            <mxPoint x="360" y="-1320" as="targetPoint" />
          </mxGeometry>
        </mxCell>
        <mxCell id="S8BT3uGQNklFfDtIyJ3y-110" value="" style="endArrow=none;html=1;rounded=0;entryX=0.063;entryY=0.744;entryDx=0;entryDy=0;exitX=1;exitY=0.3333333333333333;exitDx=0;exitDy=0;exitPerimeter=0;entryPerimeter=0;" edge="1" parent="1" source="vdx9aR_LZm65uiy0afiX-17">
          <mxGeometry width="50" height="50" relative="1" as="geometry">
            <mxPoint x="55" y="-927" as="sourcePoint" />
            <mxPoint x="165.71000000000004" y="-1165.3599999999997" as="targetPoint" />
          </mxGeometry>
        </mxCell>
        <mxCell id="S8BT3uGQNklFfDtIyJ3y-111" value="" style="endArrow=none;html=1;rounded=0;entryX=0.006;entryY=0.434;entryDx=0;entryDy=0;exitX=1;exitY=0.3333333333333333;exitDx=0;exitDy=0;exitPerimeter=0;entryPerimeter=0;" edge="1" parent="1" source="vdx9aR_LZm65uiy0afiX-17" target="S8BT3uGQNklFfDtIyJ3y-13">
          <mxGeometry width="50" height="50" relative="1" as="geometry">
            <mxPoint x="55" y="-927" as="sourcePoint" />
            <mxPoint x="461" y="-1225" as="targetPoint" />
          </mxGeometry>
        </mxCell>
        <mxCell id="S8BT3uGQNklFfDtIyJ3y-112" value="" style="endArrow=none;html=1;rounded=0;entryX=0;entryY=0.5;entryDx=0;entryDy=0;exitX=1;exitY=0.3333333333333333;exitDx=0;exitDy=0;exitPerimeter=0;" edge="1" parent="1" source="vdx9aR_LZm65uiy0afiX-17" target="S8BT3uGQNklFfDtIyJ3y-14">
          <mxGeometry width="50" height="50" relative="1" as="geometry">
            <mxPoint x="55" y="-927" as="sourcePoint" />
            <mxPoint x="471" y="-1144" as="targetPoint" />
          </mxGeometry>
        </mxCell>
        <mxCell id="S8BT3uGQNklFfDtIyJ3y-113" value="" style="endArrow=none;html=1;rounded=0;entryX=0.5;entryY=0;entryDx=0;entryDy=0;" edge="1" parent="1" source="vdx9aR_LZm65uiy0afiX-18" target="S8BT3uGQNklFfDtIyJ3y-18">
          <mxGeometry width="50" height="50" relative="1" as="geometry">
            <mxPoint x="50" y="-235" as="sourcePoint" />
            <mxPoint x="165" y="-235" as="targetPoint" />
          </mxGeometry>
        </mxCell>
        <mxCell id="S8BT3uGQNklFfDtIyJ3y-115" value="&lt;i&gt;View statistical charts&amp;nbsp;&lt;/i&gt;" style="ellipse;whiteSpace=wrap;html=1;fillColor=#f5f5f5;fontColor=#333333;strokeColor=#666666;" vertex="1" parent="1">
          <mxGeometry x="175" y="-837.5" width="180" height="60" as="geometry" />
        </mxCell>
        <mxCell id="S8BT3uGQNklFfDtIyJ3y-116" value="" style="endArrow=none;html=1;rounded=0;entryX=0.028;entryY=0.271;entryDx=0;entryDy=0;entryPerimeter=0;" edge="1" parent="1" source="vdx9aR_LZm65uiy0afiX-17" target="S8BT3uGQNklFfDtIyJ3y-115">
          <mxGeometry width="50" height="50" relative="1" as="geometry">
            <mxPoint x="55" y="-916" as="sourcePoint" />
            <mxPoint x="730" y="-867" as="targetPoint" />
          </mxGeometry>
        </mxCell>
        <mxCell id="S8BT3uGQNklFfDtIyJ3y-117" value="" style="endArrow=blockThin;endSize=16;endFill=0;html=1;rounded=0;exitX=0;exitY=0.5;exitDx=0;exitDy=0;entryX=1;entryY=0.5;entryDx=0;entryDy=0;" edge="1" parent="1" source="S8BT3uGQNklFfDtIyJ3y-7" target="S8BT3uGQNklFfDtIyJ3y-115">
          <mxGeometry width="160" relative="1" as="geometry">
            <mxPoint x="380" y="-355" as="sourcePoint" />
            <mxPoint x="270" y="-260" as="targetPoint" />
          </mxGeometry>
        </mxCell>
        <mxCell id="S8BT3uGQNklFfDtIyJ3y-119" value="" style="endArrow=blockThin;endSize=16;endFill=0;html=1;rounded=0;exitX=0;exitY=0.5;exitDx=0;exitDy=0;entryX=0.879;entryY=0.826;entryDx=0;entryDy=0;entryPerimeter=0;" edge="1" parent="1" source="S8BT3uGQNklFfDtIyJ3y-8" target="S8BT3uGQNklFfDtIyJ3y-115">
          <mxGeometry width="160" relative="1" as="geometry">
            <mxPoint x="646" y="-780" as="sourcePoint" />
            <mxPoint x="560" y="-780" as="targetPoint" />
          </mxGeometry>
        </mxCell>
        <mxCell id="S8BT3uGQNklFfDtIyJ3y-133" value="" style="group" vertex="1" connectable="0" parent="1">
          <mxGeometry x="730" y="-260" width="10" height="10" as="geometry" />
        </mxCell>
        <mxCell id="S8BT3uGQNklFfDtIyJ3y-61" value="" style="strokeWidth=1;html=1;shape=mxgraph.flowchart.start_2;whiteSpace=wrap;" vertex="1" parent="S8BT3uGQNklFfDtIyJ3y-133">
          <mxGeometry width="10" height="10" as="geometry" />
        </mxCell>
        <mxCell id="S8BT3uGQNklFfDtIyJ3y-62" value="" style="line;strokeWidth=1;rotatable=0;dashed=0;labelPosition=right;align=left;verticalAlign=middle;spacingTop=0;spacingLeft=6;points=[];portConstraint=eastwest;" vertex="1" parent="S8BT3uGQNklFfDtIyJ3y-133">
          <mxGeometry y="4.375" width="10" height="1" as="geometry" />
        </mxCell>
        <mxCell id="S8BT3uGQNklFfDtIyJ3y-134" value="" style="group" vertex="1" connectable="0" parent="1">
          <mxGeometry x="160" y="-1310" width="180" height="160" as="geometry" />
        </mxCell>
        <mxCell id="S8BT3uGQNklFfDtIyJ3y-122" value="" style="shape=ellipse;container=0;horizontal=1;horizontalStack=0;resizeParent=1;resizeParentMax=0;resizeLast=0;html=1;dashed=0;collapsible=0;fillColor=#F5F5F5;" vertex="1" parent="S8BT3uGQNklFfDtIyJ3y-134">
          <mxGeometry width="180" height="160" as="geometry" />
        </mxCell>
        <mxCell id="S8BT3uGQNklFfDtIyJ3y-123" value="View Profile" style="html=1;strokeColor=none;fillColor=none;align=center;verticalAlign=middle;rotatable=0;whiteSpace=wrap;container=0;" vertex="1" parent="S8BT3uGQNklFfDtIyJ3y-134">
          <mxGeometry width="180" height="40" as="geometry" />
        </mxCell>
        <mxCell id="S8BT3uGQNklFfDtIyJ3y-124" value="" style="line;strokeWidth=1;fillColor=none;rotatable=0;labelPosition=right;points=[];portConstraint=eastwest;dashed=0;resizeWidth=1;container=0;" vertex="1" parent="S8BT3uGQNklFfDtIyJ3y-134">
          <mxGeometry x="9" y="40" width="162" height="13.333333333333334" as="geometry" />
        </mxCell>
        <mxCell id="S8BT3uGQNklFfDtIyJ3y-125" value="&lt;b&gt;extension points&lt;/b&gt;" style="text;html=1;align=center;verticalAlign=middle;rotatable=0;fillColor=none;strokeColor=none;whiteSpace=wrap;container=0;" vertex="1" parent="S8BT3uGQNklFfDtIyJ3y-134">
          <mxGeometry y="53.33333333333326" width="180" height="40" as="geometry" />
        </mxCell>
        <mxCell id="S8BT3uGQNklFfDtIyJ3y-126" value="Update Profile" style="text;html=1;align=center;verticalAlign=middle;rotatable=0;spacingLeft=0;fillColor=none;strokeColor=none;whiteSpace=wrap;container=0;" vertex="1" parent="S8BT3uGQNklFfDtIyJ3y-134">
          <mxGeometry y="93.33333333333326" width="180" height="40" as="geometry" />
        </mxCell>
        <mxCell id="S8BT3uGQNklFfDtIyJ3y-135" value="" style="group" vertex="1" connectable="0" parent="1">
          <mxGeometry x="490" y="-290" width="180" height="160" as="geometry" />
        </mxCell>
        <mxCell id="S8BT3uGQNklFfDtIyJ3y-136" value="" style="shape=ellipse;container=0;horizontal=1;horizontalStack=0;resizeParent=1;resizeParentMax=0;resizeLast=0;html=1;dashed=0;collapsible=0;fillColor=#F5F5F5;" vertex="1" parent="S8BT3uGQNklFfDtIyJ3y-135">
          <mxGeometry width="180" height="160" as="geometry" />
        </mxCell>
        <mxCell id="S8BT3uGQNklFfDtIyJ3y-137" value="Create alarm&amp;nbsp;&lt;div&gt;condition&lt;/div&gt;" style="html=1;strokeColor=none;fillColor=none;align=center;verticalAlign=middle;rotatable=0;whiteSpace=wrap;container=0;" vertex="1" parent="S8BT3uGQNklFfDtIyJ3y-135">
          <mxGeometry y="7" width="180" height="40" as="geometry" />
        </mxCell>
        <mxCell id="S8BT3uGQNklFfDtIyJ3y-138" value="" style="line;strokeWidth=1;fillColor=none;rotatable=0;labelPosition=right;points=[];portConstraint=eastwest;dashed=0;resizeWidth=1;container=0;" vertex="1" parent="S8BT3uGQNklFfDtIyJ3y-135">
          <mxGeometry x="9" y="40" width="162" height="13.333333333333334" as="geometry" />
        </mxCell>
        <mxCell id="S8BT3uGQNklFfDtIyJ3y-139" value="&lt;b&gt;extension points&lt;/b&gt;" style="text;html=1;align=center;verticalAlign=middle;rotatable=0;fillColor=none;strokeColor=none;whiteSpace=wrap;container=0;" vertex="1" parent="S8BT3uGQNklFfDtIyJ3y-135">
          <mxGeometry y="53.33333333333326" width="180" height="40" as="geometry" />
        </mxCell>
        <mxCell id="S8BT3uGQNklFfDtIyJ3y-140" value="Create alarm action" style="text;html=1;align=center;verticalAlign=middle;rotatable=0;spacingLeft=0;fillColor=none;strokeColor=none;whiteSpace=wrap;container=0;" vertex="1" parent="S8BT3uGQNklFfDtIyJ3y-135">
          <mxGeometry y="93.33333333333326" width="180" height="40" as="geometry" />
        </mxCell>
        <mxCell id="S8BT3uGQNklFfDtIyJ3y-141" value="" style="group" vertex="1" connectable="0" parent="1">
          <mxGeometry x="490" y="80" width="180" height="160" as="geometry" />
        </mxCell>
        <mxCell id="S8BT3uGQNklFfDtIyJ3y-142" value="" style="shape=ellipse;container=0;horizontal=1;horizontalStack=0;resizeParent=1;resizeParentMax=0;resizeLast=0;html=1;dashed=0;collapsible=0;fillColor=#F5F5F5;" vertex="1" parent="S8BT3uGQNklFfDtIyJ3y-141">
          <mxGeometry width="180" height="160" as="geometry" />
        </mxCell>
        <mxCell id="S8BT3uGQNklFfDtIyJ3y-143" value="View user information" style="html=1;strokeColor=none;fillColor=none;align=center;verticalAlign=middle;rotatable=0;whiteSpace=wrap;container=0;" vertex="1" parent="S8BT3uGQNklFfDtIyJ3y-141">
          <mxGeometry y="7" width="180" height="40" as="geometry" />
        </mxCell>
        <mxCell id="S8BT3uGQNklFfDtIyJ3y-144" value="" style="line;strokeWidth=1;fillColor=none;rotatable=0;labelPosition=right;points=[];portConstraint=eastwest;dashed=0;resizeWidth=1;container=0;" vertex="1" parent="S8BT3uGQNklFfDtIyJ3y-141">
          <mxGeometry x="9" y="40" width="162" height="13.333333333333334" as="geometry" />
        </mxCell>
        <mxCell id="S8BT3uGQNklFfDtIyJ3y-145" value="&lt;b&gt;extension points&lt;/b&gt;" style="text;html=1;align=center;verticalAlign=middle;rotatable=0;fillColor=none;strokeColor=none;whiteSpace=wrap;container=0;" vertex="1" parent="S8BT3uGQNklFfDtIyJ3y-141">
          <mxGeometry y="53.33333333333326" width="180" height="40" as="geometry" />
        </mxCell>
        <mxCell id="S8BT3uGQNklFfDtIyJ3y-146" value="Create alarm action" style="text;html=1;align=center;verticalAlign=middle;rotatable=0;spacingLeft=0;fillColor=none;strokeColor=none;whiteSpace=wrap;container=0;" vertex="1" parent="S8BT3uGQNklFfDtIyJ3y-141">
          <mxGeometry y="93.33333333333326" width="180" height="40" as="geometry" />
        </mxCell>
      </root>
    </mxGraphModel>
  </diagram>
</mxfile>
